<svg width="20" height="20" viewBox="0 0 20 20" fill="none" xmlns="http://www.w3.org/2000/svg">
<path fill-rule="evenodd" clip-rule="evenodd" d="M3.94945 0.5C1.76837 0.5 0 2.26322 0 4.43714C0 6.61016 1.76859 8.37317 3.94945 8.37317C6.13031 8.37317 7.89889 6.61016 7.89889 4.43714C7.89889 2.26322 6.13052 0.5 3.94945 0.5ZM3.94945 2.00741C5.295 2.00741 6.38634 3.09557 6.38634 4.43714C6.38634 5.77772 5.29487 6.86575 3.94945 6.86575C2.60403 6.86575 1.51255 5.77772 1.51255 4.43714C1.51255 3.09557 2.6039 2.00741 3.94945 2.00741ZM19.9997 4.43714C19.9997 4.02088 19.6611 3.68343 19.2434 3.68343H11.5652L11.4626 3.69031C11.0935 3.74022 10.8089 4.05557 10.8089 4.43714C10.8089 4.8534 11.1475 5.19085 11.5652 5.19085H19.2434L19.346 5.18397C19.7151 5.13406 19.9997 4.81871 19.9997 4.43714ZM12.1011 15.564C12.1011 13.3902 13.8693 11.628 16.0506 11.628C18.2318 11.628 20 13.3902 20 15.564C20 17.7378 18.2318 19.5 16.0506 19.5C13.8693 19.5 12.1011 17.7378 12.1011 15.564ZM18.4874 15.564C18.4874 14.2227 17.3964 13.1354 16.0506 13.1354C14.7047 13.1354 13.6137 14.2227 13.6137 15.564C13.6137 16.9052 14.7047 17.9926 16.0506 17.9926C17.3964 17.9926 18.4874 16.9052 18.4874 15.564ZM9.19118 15.564C9.19118 15.1477 8.85258 14.8103 8.4349 14.8103H0.756725L0.654103 14.8171C0.284963 14.8671 0.000448164 15.1824 0.000448164 15.564C0.000448164 15.9802 0.339045 16.3177 0.756725 16.3177H8.4349L8.53752 16.3108C8.90666 16.2609 9.19118 15.9455 9.19118 15.564Z" fill="#0962E8"/>
</svg>
